# xmcd
#
# Track frame offsets:
#	150
#	25063
#	44002
#	69944
#	94838
#	116495
#	143295
#	161520
#	183752
#	200087
#	221056
#	241963
#	270069
#	283256
#	305133
#
# Disc length: 4352 seconds
#
# Revision: 1
# Processed by: cddbd v1.5.1PL0 Copyright (c) Steve Scherf et al.
# Submitted via: audiograbber 1.83.01
#
DISCID=d310fe0f
DTITLE=Mick Martin and the Blues Rockers - Blues Rock, USA - Disc 1
DYEAR=1900
DGENRE=Blues
TTITLE0=Voodoo Queen
TTITLE1=There's the Door
TTITLE2=Heartbreaker
TTITLE3=Louise
TTITLE4=What's Goin' On
TTITLE5=Forever Ended Today
TTITLE6=Playing With Fire
TTITLE7=Down the Rail
TTITLE8=Hold On, Baby
TTITLE9=Whiskey
TTITLE10=Back-Talking Baby
TTITLE11=Shining Star
TTITLE12=Don't Panic
TTITLE13=Burn the House Down
TTITLE14=I Bought It For You
EXTD=
EXTT0=
EXTT1=
EXTT2=
EXTT3=
EXTT4=
EXTT5=
EXTT6=
EXTT7=
EXTT8=
EXTT9=
EXTT10=
EXTT11=
EXTT12=
EXTT13=
EXTT14=
PLAYORDER=
